<svg xmlns="http://www.w3.org/2000/svg" viewBox="0 0 800 500">
<defs><linearGradient id="bg" x1="0" y1="0" x2="1" y2="1"><stop offset="0" stop-color="#07141f"/><stop offset="1" stop-color="#173449"/></linearGradient><linearGradient id="road" x1="0" y1="0" x2="1" y2="0"><stop offset="0" stop-color="#15222c"/><stop offset="1" stop-color="#0b1116"/></linearGradient></defs>
<rect width="800" height="500" rx="36" fill="url(#bg)"/><circle cx="690" cy="90" r="90" fill="#ffffff" opacity=".06"/><circle cx="110" cy="420" r="130" fill="#ffffff" opacity=".035"/>
<text x="55" y="62" fill="#9fc7e6" font-family="Arial,sans-serif" font-size="20" font-weight="700">BALTICAR • КАТАЛОГ</text>
<text x="55" y="95" fill="#ffffff" font-family="Arial,sans-serif" font-size="30" font-weight="800">SOLARIS 2017</text>
<text x="55" y="122" fill="#8fa4b3" font-family="Arial,sans-serif" font-size="16">SIDE PROFILE • ИЛЛЮСТРАЦИЯ</text>
<ellipse cx="420" cy="405" rx="275" ry="42" fill="url(#road)"/>
<path d="M245 290 L310 240 L470 225 L555 260 L620 295 L650 345 L625 385 L215 385 L190 350 Z" fill="#4f5963"/><path d="M310 240 L470 225 L530 265 L300 270 Z" fill="#b9d7e9" opacity=".9"/><path d="M275 275 L480 275 L535 315 L250 315 Z" fill="#0e1b25" opacity=".9"/>
<circle cx="270" cy="390" r="48" fill="#091119"/><circle cx="270" cy="390" r="23" fill="#82909a"/><circle cx="270" cy="390" r="10" fill="#26333d"/>
<circle cx="570" cy="390" r="48" fill="#091119"/><circle cx="570" cy="390" r="23" fill="#82909a"/><circle cx="570" cy="390" r="10" fill="#26333d"/>
<rect x="635" y="155" width="105" height="42" rx="21" fill="#ffffff" opacity=".08"/><text x="687" y="183" text-anchor="middle" fill="#d9edf9" font-family="Arial,sans-serif" font-size="14" font-weight="700">ОНЛАЙН</text>
<text x="55" y="452" fill="#c6d2db" font-family="Arial,sans-serif" font-size="15">Стильная карточка автомобиля • BALTICAR</text>
</svg>